<?xml version="1.0" encoding="UTF-8"?>
<!DOCTYPE svg PUBLIC "-//W3C//DTD SVG 1.1//EN" "http://www.w3.org/Graphics/SVG/1.1/DTD/svg11.dtd">
<!-- Creator: CorelDRAW X8 -->
<svg xmlns="http://www.w3.org/2000/svg" xml:space="preserve" width="132.616mm" height="130.448mm" version="1.1" style="shape-rendering:geometricPrecision; text-rendering:geometricPrecision; image-rendering:optimizeQuality; fill-rule:evenodd; clip-rule:evenodd"
viewBox="0 0 11131 10949"
 xmlns:xlink="http://www.w3.org/1999/xlink">
 <defs>
  <style type="text/css">
   <![CDATA[
    .fil5 {fill:#ED3237;fill-rule:nonzero}
    .fil3 {fill:#CCCCCC;fill-rule:nonzero}
    .fil4 {fill:#FBFBFB;fill-rule:nonzero}
    .fil0 {fill:url(#id0);fill-rule:nonzero}
    .fil1 {fill:url(#id1);fill-rule:nonzero}
    .fil2 {fill:url(#id2);fill-rule:nonzero;fill-opacity:0.800000}
   ]]>
  </style>
  <linearGradient id="id0" gradientUnits="userSpaceOnUse" x1="55.011" y1="4352.13" x2="11076.1" y2="6597.03">
   <stop offset="0" style="stop-opacity:1; stop-color:#FBC9C9"/>
   <stop offset="0.501961" style="stop-opacity:1; stop-color:#FBBCBC"/>
   <stop offset="1" style="stop-opacity:1; stop-color:#F4BDBD"/>
  </linearGradient>
  <linearGradient id="id1" gradientUnits="userSpaceOnUse" xlink:href="#id0" x1="-170.413" y1="5828.89" x2="11334.7" y2="5837.1">
  </linearGradient>
  <linearGradient id="id2" gradientUnits="userSpaceOnUse" xlink:href="#id0" x1="731.69" y1="5408.9" x2="10426.2" y2="4926.43">
  </linearGradient>
 </defs>
 <g id="Camada_x0020_1">
  <metadata id="CorelCorpID_0Corel-Layer"/>
  <g id="_2449600554896">
   <path class="fil0" d="M8027 632l-2832 -577c-957,-195 -1945,136 -2593,867l-1915 2164c-648,731 -856,1752 -546,2678l917 2742c309,926 1089,1616 2046,1811l2832 577c957,195 1946,-135 2593,-867l1915 -2164c648,-731 856,-1752 546,-2678l-916 -2741c-310,-927 -1090,-1617 -2047,-1812z"/>
  </g>
  <g id="_2449600554832">
   <path class="fil1" d="M6182 910l-2599 384c-878,130 -1619,721 -1945,1550l-965 2453c-326,829 -187,1771 365,2470l1634 2069c552,699 1433,1050 2311,920l2598 -384c878,-130 1619,-721 1945,-1550l965 -2453c326,-829 187,-1771 -365,-2470l-1634 -2069c-551,-699 -1432,-1050 -2310,-920z"/>
  </g>
  <g id="_2449600554736">
   <path class="fil2" d="M6600 592l-2491 124c-842,42 -1597,530 -1982,1280l-1138 2219c-385,750 -340,1648 117,2356l1353 2096c457,708 1257,1118 2099,1076l2491 -124c842,-42 1597,-530 1982,-1279l1138 -2220c385,-750 340,-1648 -117,-2356l-1353 -2095c-457,-708 -1257,-1119 -2099,-1077z"/>
  </g>
  <path class="fil3" d="M6646 1617l-2196 2c-741,0 -1426,396 -1797,1039l-1096 1902c-370,642 -370,1434 1,2076l1099 1900c372,642 1057,1037 1799,1037l2195 -2c742,0 1427,-396 1798,-1039l1096 -1902c370,-642 370,-1434 -2,-2076l-1099 -1900c-371,-642 -1057,-1038 -1798,-1037z"/>
  <path class="fil4" d="M6646 1488l-2196 2c-741,1 -1426,397 -1797,1039l-1096 1902c-370,643 -370,1434 1,2076l1099 1901c372,642 1057,1037 1799,1036l2195 -1c742,-1 1427,-397 1798,-1040l1096 -1901c370,-643 370,-1434 -2,-2076l-1099 -1901c-371,-642 -1057,-1037 -1798,-1037z"/>
  <path class="fil5" d="M5416 7572c-51,0 -98,-12 -139,-37 -68,-41 -118,-116 -145,-216 -19,-70 -20,-130 -20,-133 -1,-23 11,-46 30,-59 19,-14 44,-17 66,-8 1,0 109,41 230,75 70,20 123,32 162,38 -47,-17 -103,-34 -162,-52 -109,-34 -222,-68 -312,-112 -54,-26 -94,-53 -122,-82 -51,-51 -59,-102 -57,-136 0,0 0,-1 0,-1 3,-27 17,-51 39,-65 59,-39 149,-14 414,72 95,31 194,63 278,84 19,5 35,8 49,11 -8,-3 -18,-7 -29,-11 -72,-29 -161,-57 -255,-87 -115,-36 -233,-73 -323,-112 -88,-39 -188,-95 -185,-188 1,-34 17,-63 44,-82 45,-31 113,-32 235,-3 87,21 193,55 296,88 94,30 191,61 270,81 38,10 66,15 87,18 -13,-7 -31,-15 -54,-24 -62,-24 -144,-48 -231,-73 -175,-50 -373,-107 -506,-198 -79,-55 -129,-116 -157,-191 -25,-66 -29,-136 -33,-210 -8,-130 -17,-292 -139,-518 -168,-209 -281,-425 -338,-642 -54,-208 -54,-409 -1,-599 49,-175 141,-330 273,-462 131,-132 295,-234 487,-302 0,0 0,0 0,-1 85,-30 186,-49 293,-56 122,-7 244,2 363,28 297,65 544,229 716,476 0,0 1,0 1,0 102,151 170,303 201,453 30,141 27,284 -6,425 -57,239 -204,475 -448,721 -4,4 -46,52 -99,152 -52,96 -123,262 -174,507 -3,15 -27,120 -112,184 -86,68 -217,78 -343,25 -12,-4 -43,-17 -75,-44 -52,-44 -80,-103 -82,-172 0,0 0,0 0,-1 0,-5 -9,-526 -9,-731 0,-56 -80,-121 -150,-178 -41,-33 -84,-67 -116,-103 -35,-40 -54,-91 -52,-145 1,-49 19,-95 47,-123 1,-1 2,-2 3,-3 57,-51 110,-47 145,-34 36,13 62,39 85,61 5,5 12,12 18,17 5,-12 9,-29 12,-40 10,-38 21,-80 47,-116 35,-50 87,-73 152,-67 57,5 102,33 129,81 20,35 27,74 32,106 1,3 1,6 2,9 10,-10 22,-22 29,-30 22,-24 44,-48 71,-66 53,-37 99,-30 128,-18 0,0 0,0 1,1 56,24 92,69 102,128 25,139 -106,314 -158,364 -111,115 -285,149 -292,150 -38,7 -75,-18 -82,-56 -8,-39 17,-75 56,-83l0 0c1,0 138,-27 218,-110 1,-1 1,-1 2,-2 47,-44 128,-176 117,-239 -1,-8 -4,-14 -12,-19 -13,9 -35,32 -47,46 -39,41 -86,93 -151,93 -4,0 -9,-1 -15,-1 -23,-3 -65,-16 -89,-70 -10,-23 -14,-48 -19,-72 -12,-69 -19,-70 -35,-72 -17,-1 -20,3 -24,8 -11,15 -18,45 -25,71 -7,26 -14,52 -26,76 -18,38 -44,63 -78,73 -25,8 -63,11 -105,-14 -22,-13 -40,-31 -56,-47 -9,-8 -23,-22 -32,-27 -1,0 -2,1 -3,2 -6,10 -14,47 11,74 24,27 60,56 98,87 96,77 204,165 204,288 0,202 8,711 8,729 1,28 12,50 32,67 15,13 31,19 31,19 2,1 4,1 6,2 78,33 157,31 203,-6 0,0 1,-1 2,-2 36,-26 54,-79 58,-97 0,-1 0,-1 0,-1 107,-513 302,-720 311,-729 0,0 0,0 0,-1 488,-491 563,-942 237,-1420 -335,-481 -919,-497 -1209,-394 -341,122 -586,366 -671,669 -98,347 15,745 317,1120 2,3 5,6 7,10 140,257 151,445 159,582 8,142 12,213 130,293 113,78 300,132 464,179 214,62 368,106 414,201 16,35 17,72 1,109 -12,29 -42,65 -117,68 -33,1 -75,-4 -129,-15 -92,-20 -209,-58 -323,-94 -93,-30 -190,-61 -268,-81 -19,-4 -35,-8 -49,-11 15,7 33,15 54,24 80,32 182,64 281,96 116,36 225,70 308,107 49,22 85,42 110,64 58,49 56,100 50,126 -8,29 -27,53 -54,69 -89,49 -265,-4 -543,-95 -67,-22 -132,-43 -186,-58 5,3 11,6 18,9 80,39 188,72 292,104 85,26 166,51 227,78 37,16 64,32 84,49 46,40 48,83 45,105 -5,34 -25,63 -55,81 -21,12 -50,23 -104,23 -57,0 -142,-12 -272,-49 -48,-14 -95,-28 -134,-41 14,48 39,99 79,123 49,29 121,20 215,-26 35,-18 78,-4 95,31 18,35 3,77 -32,95 -77,39 -148,58 -212,58z"/>
 </g>
</svg>
