<?xml version="1.0" encoding="UTF-8"?>
<!DOCTYPE svg PUBLIC "-//W3C//DTD SVG 1.1//EN" "http://www.w3.org/Graphics/SVG/1.1/DTD/svg11.dtd">
<!-- Creator: CorelDRAW X8 -->
<svg xmlns="http://www.w3.org/2000/svg" xml:space="preserve" width="132.624mm" height="130.448mm" version="1.1" style="shape-rendering:geometricPrecision; text-rendering:geometricPrecision; image-rendering:optimizeQuality; fill-rule:evenodd; clip-rule:evenodd"
viewBox="0 0 13263 13045"
 xmlns:xlink="http://www.w3.org/1999/xlink">
 <defs>
  <style type="text/css">
   <![CDATA[
    .str0 {stroke:#ED3237;stroke-width:52.9108}
    .fil6 {fill:#ED3237;fill-rule:nonzero}
    .fil3 {fill:#CCCCCC;fill-rule:nonzero}
    .fil5 {fill:#E6E7E8;fill-rule:nonzero}
    .fil7 {fill:#EBEFF0;fill-rule:nonzero}
    .fil4 {fill:#FBFBFB;fill-rule:nonzero}
    .fil1 {fill:url(#id0);fill-rule:nonzero}
    .fil0 {fill:url(#id1);fill-rule:nonzero}
    .fil2 {fill:url(#id2);fill-rule:nonzero}
   ]]>
  </style>
  <linearGradient id="id0" gradientUnits="userSpaceOnUse" x1="191.352" y1="6943.1" x2="13110.5" y2="6953.88">
   <stop offset="0" style="stop-opacity:1; stop-color:#FBC9C9"/>
   <stop offset="0.501961" style="stop-opacity:1; stop-color:#FBBCBC"/>
   <stop offset="1" style="stop-opacity:1; stop-color:#F4BDBD"/>
  </linearGradient>
  <linearGradient id="id1" gradientUnits="userSpaceOnUse" xlink:href="#id0" x1="446.496" y1="5250.57" x2="12816.1" y2="7793.44">
  </linearGradient>
  <linearGradient id="id2" gradientUnits="userSpaceOnUse" xlink:href="#id0" x1="1157.57" y1="6437.57" x2="12135.8" y2="5873.37">
  </linearGradient>
 </defs>
 <g id="Camada_x0020_1">
  <metadata id="CorelCorpID_0Corel-Layer"/>
  <g id="_2449600554896">
   <path class="fil0" d="M9564 753l-3374 -687c-1140,-233 -2318,162 -3090,1033l-2281 2578c-772,871 -1020,2087 -651,3190l1093 3267c368,1103 1297,1926 2438,2158l3374 687c1140,233 2318,-161 3089,-1033l2281 -2578c773,-871 1020,-2087 651,-3190l-1091 -3266c-370,-1105 -1299,-1927 -2439,-2159z"/>
  </g>
  <g id="_2449600554832">
   <path class="fil1" d="M7366 1084l-3097 458c-1046,155 -1929,859 -2317,1846l-1150 2923c-388,988 -223,2110 435,2943l1947 2465c657,833 1707,1251 2753,1096l3095 -458c1047,-154 1929,-859 2318,-1846l1149 -2923c389,-988 223,-2110 -434,-2943l-1947 -2465c-657,-832 -1706,-1251 -2752,-1096z"/>
  </g>
  <g id="_2449600554736">
   <path class="fil2" d="M7864 705l-2968 148c-1003,50 -1903,632 -2361,1525l-1356 2644c-459,893 -405,1963 139,2807l1612 2497c545,844 1498,1332 2501,1282l2968 -148c1003,-50 1902,-631 2361,-1524l1356 -2644c459,-894 405,-1964 -140,-2807l-1612 -2496c-544,-844 -1497,-1334 -2500,-1284z"/>
  </g>
  <path class="fil3" d="M7918 1927l-2616 2c-883,0 -1699,472 -2141,1238l-1306 2266c-440,765 -440,1708 2,2473l1309 2264c443,765 1259,1235 2143,1235l2615 -2c884,0 1701,-472 2143,-1238l1305 -2266c441,-765 441,-1708 -2,-2473l-1309 -2264c-442,-765 -1260,-1237 -2143,-1235z"/>
  <path class="fil4" d="M7918 1773l-2616 2c-883,1 -1699,473 -2141,1238l-1306 2266c-440,766 -440,1709 2,2474l1309 2264c443,765 1259,1236 2143,1235l2615 -1c884,-2 1701,-473 2143,-1240l1305 -2264c441,-766 441,-1709 -2,-2474l-1309 -2265c-442,-765 -1260,-1235 -2143,-1235z"/>
  <g id="_2314928942512">
   <path class="fil5" d="M7459 5080l-2264 0 -837 0 -631 0c-101,0 -183,82 -183,184l0 29c0,101 82,184 183,184l403 0 0 1 1085 0c101,0 184,82 184,184l0 29c0,101 -83,184 -184,184l-1085 0 0 1 -934 0c-101,0 -184,82 -184,184l0 29c0,101 83,184 184,184l934 0 0 1 292 0c102,0 184,82 184,183l0 30c0,101 -82,183 -184,183l-292 0 0 2 -220 0c-101,0 -184,82 -184,183l0 30c0,101 83,183 184,183l615 0 0 269 848 0c102,-121 255,-198 426,-198 172,0 325,77 427,198l1461 0 0 -2029c0,-126 -102,-228 -228,-228z"/>
  </g>
  <g id="_2314928942960">
   <g>
    <path class="fil6 str0" d="M10141 7809l-791 0c-11,0 -20,-8 -23,-19 -54,-234 -268,-404 -508,-404 -240,0 -453,170 -507,404 -3,11 -12,19 -24,19l-183 0c-13,0 -24,-11 -24,-24l0 -2211c0,-101 82,-183 183,-183l1116 0c186,0 355,117 421,290l334 890c20,51 30,106 30,161l0 1053c0,13 -11,24 -24,24zm-772 -48l0 0 749 0 0 -1029c0,-50 -9,-98 -27,-144 0,0 0,0 0,0l-334 -890c-59,-155 -211,-259 -377,-259l-1116 0c-75,0 -136,60 -136,135l0 2187 142 0c66,-249 289,-422 549,-422 260,0 483,173 550,422z"/>
   </g>
   <g>
    <path class="fil6 str0" d="M8819 8377c-258,0 -469,-211 -469,-469 0,-259 211,-470 469,-470 259,0 470,211 470,470 0,258 -211,469 -470,469zm0 -896l0 0c-235,0 -427,191 -427,427 0,235 192,427 427,427 236,0 427,-192 427,-427 0,-236 -191,-427 -427,-427z"/>
   </g>
   <g>
    <path class="fil6 str0" d="M8819 8131c-123,0 -223,-100 -223,-223 0,-124 100,-224 223,-224 124,0 224,100 224,224 0,123 -100,223 -224,223zm0 -405l0 0c-100,0 -181,82 -181,182 0,100 81,181 181,181 100,0 182,-81 182,-181 0,-100 -82,-182 -182,-182z"/>
   </g>
   <g>
    <path class="fil6 str0" d="M10032 7918l-668 0c-13,0 -23,-11 -24,-23 -3,-119 -44,-229 -120,-320 -5,-7 -7,-17 -3,-25 4,-8 13,-14 22,-14l814 0c62,0 112,50 112,112l0 137c0,73 -59,133 -133,133zm-645 -48l0 0 645 0c47,0 86,-38 86,-85l0 -137c0,-35 -29,-64 -65,-64l-767 0c60,85 94,182 101,286z"/>
   </g>
   <g>
    <path class="fil6 str0" d="M8797 6624l-364 0c-57,0 -104,-47 -104,-104l0 -810c0,-57 47,-104 104,-104l364 0c57,0 103,47 103,104l0 810c0,57 -46,104 -103,104zm-364 -970l0 0c-31,0 -56,25 -56,56l0 810c0,31 25,56 56,56l364 0c31,0 56,-25 56,-56l0 -810c0,-31 -25,-56 -56,-56l-364 0z"/>
   </g>
   <g>
    <path class="fil6 str0" d="M9776 6624l-680 0c-57,0 -103,-47 -103,-104l0 -810c0,-57 46,-104 103,-104l284 0c97,0 186,61 220,152l273 726c12,32 7,67 -12,95 -19,28 -51,45 -85,45zm-680 -970l0 0c-31,0 -56,25 -56,56l0 810c0,31 25,56 56,56l680 0c18,0 35,-9 46,-24 11,-15 13,-34 6,-52l-272 -725c-28,-72 -98,-121 -176,-121l-284 0z"/>
   </g>
   <g>
    <path class="fil6 str0" d="M5782 8367c-253,0 -460,-206 -460,-459 0,-254 207,-460 460,-460 254,0 460,206 460,460 0,253 -206,459 -460,459zm0 -877l0 0c-230,0 -417,187 -417,418 0,230 187,417 417,417 230,0 418,-187 418,-417 0,-231 -188,-418 -418,-418z"/>
   </g>
   <g>
    <path class="fil6 str0" d="M5782 8127c-121,0 -219,-98 -219,-219 0,-121 98,-220 219,-220 121,0 220,99 220,220 0,121 -99,219 -220,219zm0 -397l0 0c-98,0 -177,80 -177,178 0,97 79,177 177,177 98,0 177,-80 177,-177 0,-98 -79,-178 -177,-178z"/>
   </g>
   <g>
    <path class="fil6 str0" d="M8275 7918l-1934 0c-13,0 -23,-11 -23,-24 -3,-118 -45,-228 -120,-319 -6,-7 -7,-17 -3,-25 4,-8 12,-14 21,-14l2184 0c9,0 18,6 21,14 4,8 3,18 -3,25 -75,91 -117,201 -120,319 0,13 -10,24 -23,24zm-1911 -48l0 0 1888 0c7,-104 41,-201 100,-286l-2088 0c59,85 93,182 100,286z"/>
   </g>
   <g>
    <path class="fil6 str0" d="M5238 7918l-358 0c-59,0 -107,-48 -107,-107l0 -168c0,-59 48,-107 107,-107l483 0c9,0 17,6 21,14 4,8 3,18 -3,25 -75,91 -117,202 -120,319 0,13 -11,24 -23,24zm-358 -334l0 0c-33,0 -60,26 -60,59l0 168c0,33 27,59 60,59l335 0c7,-104 41,-201 100,-286l-435 0z"/>
   </g>
   <g>
    <path class="fil6 str0" d="M5362 7584c-5,0 -11,-2 -15,-6 -10,-8 -12,-23 -3,-33 111,-131 272,-206 444,-206 168,0 327,72 437,197l1633 0 0 -2005c0,-113 -92,-204 -204,-204l-2977 0c-13,0 -24,-11 -24,-24 0,-13 11,-24 24,-24l2977 0c138,0 251,113 251,252l0 2029c0,13 -10,24 -23,24l-1668 0c-7,0 -13,-3 -18,-9 -101,-120 -250,-189 -408,-189 -158,0 -306,69 -408,189 -5,6 -11,9 -18,9z"/>
   </g>
  </g>
  <g id="_2314924451936">
   <path class="fil5" d="M3150 5274c0,101 -82,184 -183,184 -101,0 -183,-83 -183,-184 0,-101 82,-183 183,-183 101,0 183,82 183,183z"/>
  </g>
  <g id="_2314924460224">
   <path class="fil5" d="M3334 6894c0,65 -53,117 -118,117 -65,0 -118,-52 -118,-117 0,-65 53,-118 118,-118 65,0 118,53 118,118z"/>
  </g>
  <g id="_2314924461856">
   <g>
    <g>
     <path class="fil7" d="M3197 6063c36,0 36,-55 0,-55 -35,0 -35,55 0,55z"/>
    </g>
   </g>
   <g>
    <g>
     <path class="fil7" d="M3307 6142c35,0 35,-55 0,-55 -36,0 -36,55 0,55z"/>
    </g>
   </g>
   <g>
    <g>
     <path class="fil7" d="M7342 7119c-5,0 -10,0 -15,0 -36,0 -36,55 0,55 5,0 10,0 15,0 36,0 36,-55 0,-55z"/>
    </g>
   </g>
   <g>
    <g>
     <path class="fil7" d="M7499 7002c35,0 35,-55 0,-55 -36,0 -36,55 0,55z"/>
    </g>
   </g>
   <g>
    <g>
     <path class="fil7" d="M7499 7002c35,0 35,-55 0,-55 -36,0 -36,55 0,55z"/>
    </g>
   </g>
   <g>
    <g>
     <path class="fil7" d="M7327 6986c35,0 35,-55 0,-55 -36,0 -36,55 0,55z"/>
    </g>
   </g>
   <g>
    <g>
     <path class="fil7" d="M3776 5297c35,0 35,-55 0,-55 -36,0 -36,55 0,55z"/>
    </g>
   </g>
  </g>
 </g>
</svg>
