<?xml version="1.0" encoding="UTF-8"?>
<!DOCTYPE svg PUBLIC "-//W3C//DTD SVG 1.1//EN" "http://www.w3.org/Graphics/SVG/1.1/DTD/svg11.dtd">
<!-- Creator: CorelDRAW X8 -->
<svg xmlns="http://www.w3.org/2000/svg" xml:space="preserve" width="132.623mm" height="130.45mm" version="1.1" style="shape-rendering:geometricPrecision; text-rendering:geometricPrecision; image-rendering:optimizeQuality; fill-rule:evenodd; clip-rule:evenodd"
viewBox="0 0 13262 13045"
 xmlns:xlink="http://www.w3.org/1999/xlink">
 <defs>
  <style type="text/css">
   <![CDATA[
    .str0 {stroke:#ED3237;stroke-width:143.73}
    .str1 {stroke:#ED3237;stroke-width:143.73;stroke-linejoin:round}
    .fil5 {fill:none;fill-rule:nonzero}
    .fil6 {fill:#FEFEFE;fill-rule:nonzero}
    .fil3 {fill:#CCCCCC;fill-rule:nonzero}
    .fil4 {fill:#FBFBFB;fill-rule:nonzero}
    .fil0 {fill:url(#id0);fill-rule:nonzero}
    .fil1 {fill:url(#id1);fill-rule:nonzero}
    .fil2 {fill:url(#id2);fill-rule:nonzero}
   ]]>
  </style>
  <linearGradient id="id0" gradientUnits="userSpaceOnUse" x1="259.029" y1="5218.47" x2="13003.3" y2="7826.52">
   <stop offset="0" style="stop-opacity:1; stop-color:#FBC9C9"/>
   <stop offset="0.501961" style="stop-opacity:1; stop-color:#FBBCBC"/>
   <stop offset="1" style="stop-opacity:1; stop-color:#F4BDBD"/>
  </linearGradient>
  <linearGradient id="id1" gradientUnits="userSpaceOnUse" xlink:href="#id0" x1="-2.82356" y1="6943.72" x2="13304.5" y2="6954.22">
  </linearGradient>
  <linearGradient id="id2" gradientUnits="userSpaceOnUse" xlink:href="#id0" x1="1016.22" y1="6440.8" x2="12277.1" y2="5871.4">
  </linearGradient>
 </defs>
 <g id="Camada_x0020_1">
  <metadata id="CorelCorpID_0Corel-Layer"/>
  <g id="_2449600554896">
   <path class="fil0" d="M9564 753l-3374 -687c-1140,-233 -2318,162 -3090,1033l-2281 2578c-772,871 -1020,2087 -651,3190l1093 3267c368,1103 1297,1926 2438,2158l3374 687c1140,233 2318,-161 3089,-1033l2281 -2578c773,-871 1020,-2087 651,-3190l-1091 -3266c-370,-1105 -1299,-1927 -2439,-2159z"/>
  </g>
  <g id="_2449600554832">
   <path class="fil1" d="M7366 1084l-3097 458c-1046,155 -1929,859 -2317,1846l-1150 2923c-388,988 -223,2110 435,2943l1947 2465c657,833 1707,1251 2753,1096l3095 -458c1047,-154 1929,-859 2318,-1846l1149 -2923c389,-988 223,-2110 -434,-2943l-1947 -2465c-657,-832 -1706,-1251 -2752,-1096z"/>
  </g>
  <g id="_2449600554736">
   <path class="fil2" d="M7864 705l-2968 148c-1003,50 -1903,632 -2361,1525l-1356 2644c-459,893 -405,1963 139,2807l1612 2497c545,844 1498,1332 2501,1282l2968 -148c1003,-50 1902,-631 2361,-1524l1356 -2644c459,-894 405,-1964 -140,-2807l-1612 -2496c-544,-844 -1497,-1334 -2500,-1284z"/>
  </g>
  <path class="fil3" d="M7918 1927l-2616 2c-883,0 -1699,472 -2141,1238l-1306 2266c-440,765 -440,1708 2,2473l1309 2264c443,765 1259,1235 2143,1235l2615 -2c884,0 1701,-472 2143,-1238l1305 -2266c441,-765 441,-1708 -2,-2473l-1309 -2264c-442,-765 -1260,-1237 -2143,-1235z"/>
  <path class="fil4" d="M7918 1773l-2616 2c-883,1 -1699,473 -2141,1238l-1306 2266c-440,766 -440,1709 2,2474l1309 2264c443,765 1259,1236 2143,1235l2615 -1c884,-2 1701,-473 2143,-1240l1305 -2264c441,-766 441,-1709 -2,-2474l-1309 -2265c-442,-765 -1260,-1235 -2143,-1235z"/>
  <g id="_2165857453984">
   <polygon class="fil5 str0" points="5514,9141 8031,9141 8031,8173 5514,8173 "/>
   <path class="fil6" d="M5077 5595c0,0 -288,264 -182,693 0,0 231,716 820,1272l0 613 2141 0 0 -574 292 -253c0,0 209,-162 208,-441l0 -1588 -1132 0 -2147 278z"/>
   <path class="fil5 str0" d="M5077 5595c0,0 -288,264 -182,693 0,0 231,716 820,1272l0 613 2141 0 0 -574 292 -253c0,0 209,-162 208,-441l0 -1588 -1132 0"/>
   <path class="fil5 str0" d="M8510 5078c-5,-1 -10,-1 -16,-1l-3706 0c-24,0 -45,2 -65,6 -160,-398 -548,-679 -1003,-679 -443,0 -824,267 -990,650l990 0 0 860 -990 0c166,382 547,649 990,649 455,0 843,-281 1003,-679 20,4 41,7 65,7l3706 0c3,0 6,-1 9,-1 159,400 548,683 1004,683 444,0 824,-268 991,-650l-991 0 0 -860 991 0c-167,-382 -547,-650 -991,-650 -449,0 -834,275 -997,665z"/>
   <path class="fil6" d="M8237 5382c58,0 106,48 106,106l0 0c0,59 -48,107 -106,107l-3246 0c-59,0 -107,-48 -107,-107l0 0c0,-58 48,-106 107,-106l3246 0z"/>
   <path class="fil5 str0" d="M8237 5382c58,0 106,48 106,106l0 0c0,59 -48,107 -106,107l-3246 0c-59,0 -107,-48 -107,-107l0 0c0,-58 48,-106 107,-106l3246 0z"/>
   <path class="fil5 str0" d="M3774 4689c437,10 782,372 772,809"/>
   <path class="fil5 str0" d="M9661 6288c-436,-10 -782,-372 -772,-809"/>
   <path class="fil6" d="M6365 5478c0,180 -146,325 -325,325l0 0c-179,0 -325,-145 -325,-325l0 -608c0,-179 146,-324 325,-324l0 0c179,0 325,145 325,324l0 608z"/>
   <path class="fil5 str0" d="M6365 5478c0,180 -146,325 -325,325l0 0c-179,0 -325,-145 -325,-325l0 -608c0,-179 146,-324 325,-324l0 0c179,0 325,145 325,324l0 608z"/>
   <path class="fil6" d="M7057 5432c0,180 -145,325 -324,325l0 0c-180,0 -325,-145 -325,-325l0 -703c0,-180 145,-325 325,-325l0 0c179,0 324,145 324,325l0 703z"/>
   <path class="fil5 str0" d="M7057 5432c0,180 -145,325 -324,325l0 0c-180,0 -325,-145 -325,-325l0 -703c0,-180 145,-325 325,-325l0 0c179,0 324,145 324,325l0 703z"/>
   <path class="fil6" d="M7706 5316c0,179 -145,324 -324,324l0 0c-180,0 -325,-145 -325,-324l0 -446c0,-179 145,-324 325,-324l0 0c179,0 324,145 324,324l0 446z"/>
   <path class="fil5 str0" d="M7706 5316c0,179 -145,324 -324,324l0 0c-180,0 -325,-145 -325,-324l0 -446c0,-179 145,-324 325,-324l0 0c179,0 324,145 324,324l0 446z"/>
   <path class="fil6" d="M8356 5317c0,179 -146,324 -325,324l0 0c-179,0 -325,-145 -325,-324l0 -304c0,-179 146,-324 325,-324l0 0c179,0 325,145 325,324l0 304z"/>
   <path class="fil5 str0" d="M8356 5317c0,179 -146,324 -325,324l0 0c-179,0 -325,-145 -325,-324l0 -304c0,-179 146,-324 325,-324l0 0c179,0 325,145 325,324l0 304z"/>
   <path class="fil6" d="M6379 7004c123,-977 -692,-1201 -692,-1201l943 0c427,-92 427,-629 427,-629l-1481 0 -499 421c0,0 -269,293 -182,693 0,0 203,659 820,1272l664 -556z"/>
   <path class="fil5 str1" d="M6379 7004c123,-977 -692,-1201 -692,-1201l943 0c427,-92 427,-629 427,-629l-1481 0 -499 421c0,0 -269,293 -182,693 0,0 203,659 820,1272"/>
   <path class="fil6" d="M7814 8657c0,95 -77,172 -172,172 -96,0 -173,-77 -173,-172 0,-95 77,-173 173,-173 95,0 172,78 172,173z"/>
   <path class="fil5 str0" d="M7814 8657c0,95 -77,172 -172,172 -96,0 -173,-77 -173,-172 0,-95 77,-173 173,-173 95,0 172,78 172,173z"/>
  </g>
 </g>
</svg>
