<?xml version="1.0" encoding="iso-8859-1"?>
<!-- Generator: Adobe Illustrator 19.0.0, SVG Export Plug-In . SVG Version: 6.00 Build 0)  -->
<svg version="1.1" id="Capa_1" xmlns="http://www.w3.org/2000/svg" xmlns:xlink="http://www.w3.org/1999/xlink" x="0px" y="0px"
	 viewBox="0 0 488 488" style="enable-background:new 0 0 488 488;" xml:space="preserve">
<g>
	<g>
		<g>
			<path d="M160,28H24v168h136V28z M144,180H40V44h104V180z"/>
			<path d="M128,60H56v104h72V60z M112,148H72V76h40V148z"/>
			<path d="M80,420h32c4.418,0,8-3.582,8-8s-3.582-8-8-8H80c-4.418,0-8,3.582-8,8S75.582,420,80,420z"/>
			<path d="M464,4H200c-13.255,0-24,10.745-24,24v296h-16v-96h-48v24H80v40h32v32H64v-56h-8v-24h8v-16H40v40h-8v-40H16v40H8v56H0
				v160h488V28C488,14.745,477.255,4,464,4z M128,244h16v8h-16V244z M96,276v-8h48v8H96z M144,293.336V324h-16v-30.664H144z M24,284
				h24v40H24V284z M176,428v40H16v-80h160V428z M176,372H16v-32h160V372z M192,220h64v48h-64V220z M192,284h64v40h-64V284z M192,388
				v-48h72c4.418,0,8-3.582,8-8V212c0-4.418-3.582-8-8-8h-72V68h104v352H192V388z M472,468H192v-32h280V468z M472,324h-24V220h24
				V324z M472,100h-72c-2.518,0-4.889,1.186-6.4,3.2L372,132h-36c-4.418,0-8,3.582-8,8v32c0,4.418,3.582,8,8,8h80
				c4.418,0,8-3.582,8-8v-32c0-4.418-3.582-8-8-8h-24l12-16h68v88h-32c-4.418,0-8,3.582-8,8v120c0,4.418,3.582,8,8,8h32v80H312V68
				h160V100z M408,148v16h-64v-16H408z M472,52H192V28c0-4.418,3.582-8,8-8h264c4.418,0,8,3.582,8,8V52z"/>
			<rect x="336" y="212" width="16" height="16"/>
			<rect x="368" y="212" width="16" height="16"/>
			<rect x="400" y="212" width="16" height="16"/>
			<rect x="336" y="276" width="16" height="16"/>
			<rect x="368" y="276" width="16" height="16"/>
			<rect x="400" y="276" width="16" height="16"/>
			<rect x="352" y="244" width="16" height="16"/>
			<rect x="384" y="244" width="16" height="16"/>
		</g>
	</g>
</g>
<g>
</g>
<g>
</g>
<g>
</g>
<g>
</g>
<g>
</g>
<g>
</g>
<g>
</g>
<g>
</g>
<g>
</g>
<g>
</g>
<g>
</g>
<g>
</g>
<g>
</g>
<g>
</g>
<g>
</g>
</svg>
