<?xml version="1.0" encoding="UTF-8"?>
<!DOCTYPE svg PUBLIC "-//W3C//DTD SVG 1.1//EN" "http://www.w3.org/Graphics/SVG/1.1/DTD/svg11.dtd">
<!-- Creator: CorelDRAW X8 -->
<svg xmlns="http://www.w3.org/2000/svg" xml:space="preserve" width="172.155mm" height="169.333mm" version="1.1" style="shape-rendering:geometricPrecision; text-rendering:geometricPrecision; image-rendering:optimizeQuality; fill-rule:evenodd; clip-rule:evenodd"
viewBox="0 0 17216 16933"
 xmlns:xlink="http://www.w3.org/1999/xlink">
 <defs>
  <style type="text/css">
   <![CDATA[
    .fil0 {fill:#ED3237}
   ]]>
  </style>
 </defs>
 <g id="Camada_x0020_1">
  <metadata id="CorelCorpID_0Corel-Layer"/>
  <g id="_2449397913952">
   <g>
    <g>
     <path class="fil0" d="M5644 847l-4797 0 0 5926 4797 0 0 -5926zm-564 5362l-3669 0 0 -4798 3669 0 0 4798z"/>
     <path class="fil0" d="M4516 1976l-2540 0 0 3668 2540 0 0 -3668zm-565 3104l-1411 0 0 -2540 1411 0 0 2540z"/>
     <path class="fil0" d="M2822 14676l1129 0c156,0 282,-127 282,-283 0,-156 -126,-282 -282,-282l-1129 0c-156,0 -282,126 -282,282 0,156 126,283 282,283z"/>
     <path class="fil0" d="M16369 0l-9313 0c-468,0 -847,379 -847,847l0 10442 -565 0 0 -3387 -1693 0 0 847 -1129 0 0 1411 1129 0 0 1129 -1693 0 0 -1976 -282 0 0 -846 282 0 0 -565 -847 0 0 1411 -282 0 0 -1411 -565 0 0 1411 -282 0 0 1976 -282 0 0 5644 17216 0 0 -16086c0,-468 -380,-847 -847,-847zm-11853 8467l564 0 0 282 -564 0 0 -282zm-1129 1129l0 -283 1693 0 0 283 -1693 0zm1693 611l0 1082 -564 0 0 -1082 564 0zm-4233 -329l846 0 0 1411 -846 0 0 -1411zm5362 5080l0 1411 -5645 0 0 -2822 5645 0 0 1411zm0 -1976l-5645 0 0 -1129 5645 0 0 1129zm564 -5362l2258 0 0 1693 -2258 0 0 -1693zm0 2258l2258 0 0 1411 -2258 0 0 -1411zm0 3669l0 -1694 2540 0c156,0 283,-126 283,-282l0 -4233c0,-156 -127,-282 -283,-282l-2540 0 0 -4798 3669 0 0 12418 -3669 0 0 -1129zm9878 2822l-9878 0 0 -1129 9878 0 0 1129zm0 -5080l-847 0 0 -3669 847 0 0 3669zm0 -7902l-2540 0c-89,0 -172,41 -226,113l-762 1016 -1270 0c-156,0 -282,126 -282,282l0 1129c0,156 126,282 282,282l2823 0c155,0 282,-126 282,-282l0 -1129c0,-156 -127,-282 -282,-282l-847 0 423 -565 2399 0 0 3105 -1129 0c-156,0 -282,126 -282,282l0 4233c0,156 126,282 282,282l1129 0 0 2823 -5644 0 0 -12418 5644 0 0 1129zm-2258 1693l0 564 -2257 0 0 -564 2257 0zm2258 -3387l-9878 0 0 -846c0,-156 127,-283 283,-283l9313 0c156,0 282,127 282,283l0 846z"/>
     <rect class="fil0" x="11853" y="7338" width="564" height="564"/>
     <rect class="fil0" x="12982" y="7338" width="564" height="564"/>
     <rect class="fil0" x="14111" y="7338" width="564" height="564"/>
     <rect class="fil0" x="11853" y="9596" width="564" height="564"/>
     <rect class="fil0" x="12982" y="9596" width="564" height="564"/>
     <rect class="fil0" x="14111" y="9596" width="564" height="564"/>
     <rect class="fil0" x="12418" y="8467" width="564" height="564"/>
     <rect class="fil0" x="13547" y="8467" width="564" height="564"/>
    </g>
   </g>
  </g>
 </g>
</svg>
