<?xml version="1.0" encoding="UTF-8"?>
<!DOCTYPE svg PUBLIC "-//W3C//DTD SVG 1.1//EN" "http://www.w3.org/Graphics/SVG/1.1/DTD/svg11.dtd">
<!-- Creator: CorelDRAW X8 -->
<svg xmlns="http://www.w3.org/2000/svg" xml:space="preserve" width="169.333mm" height="169.333mm" version="1.1" style="shape-rendering:geometricPrecision; text-rendering:geometricPrecision; image-rendering:optimizeQuality; fill-rule:evenodd; clip-rule:evenodd"
viewBox="0 0 16933 16933"
 xmlns:xlink="http://www.w3.org/1999/xlink">
 <defs>
  <style type="text/css">
   <![CDATA[
    .fil0 {fill:#ED3237}
   ]]>
  </style>
 </defs>
 <g id="Camada_x0020_1">
  <metadata id="CorelCorpID_0Corel-Layer"/>
  <path class="fil0" d="M10724 12418l-4515 0c-156,0 -282,126 -282,282l0 2822c0,156 126,282 282,282l4515 0c156,0 283,-126 283,-282l0 -2822c0,-156 -127,-282 -283,-282l0 0zm-282 2822l-3951 0 0 -2258 3951 0 0 2258zm0 0z"/>
  <path class="fil0" d="M5927 11289l564 0 0 564 -564 0 0 -564zm0 0z"/>
  <path class="fil0" d="M7056 11289l564 0 0 564 -564 0 0 -564zm0 0z"/>
  <path class="fil0" d="M8184 11289l565 0 0 564 -565 0 0 -564zm0 0z"/>
  <path class="fil0" d="M9313 11289l565 0 0 564 -565 0 0 -564zm0 0z"/>
  <path class="fil0" d="M10442 11289l565 0 0 564 -565 0 0 -564zm0 0z"/>
  <path class="fil0" d="M16651 10160l-5080 0 0 -847c0,-156 -126,-282 -282,-282l-847 0 0 565 565 0 0 564 -1694 0 0 -564 565 0 0 -565 -847 0c-156,0 -282,126 -282,282l0 847 -565 0 0 -847c0,-156 -126,-282 -282,-282l-846 0 0 565 564 0 0 564 -1693 0 0 -564 564 0 0 -565 -847 0c-155,0 -282,126 -282,282l0 847 -4233 0 0 -1976c0,-311 253,-564 564,-564 312,0 565,253 565,564l0 283 564 0 0 -283c0,-623 -505,-1128 -1129,-1128 -623,0 -1129,505 -1129,1128l0 847 -564 0 0 565 564 0 0 564 -282 0c-156,0 -282,126 -282,282l0 6209c0,156 126,282 282,282l16369 0c156,0 282,-126 282,-282l0 -6209c0,-156 -126,-282 -282,-282l0 0zm-282 1129l-3951 0 0 -565 3951 0 0 565zm0 1411l-3951 0 0 -847 1693 0 0 283 565 0 0 -283 1693 0 0 847zm-3951 1411l0 -847 1693 0 0 283 565 0 0 -283 1693 0 0 847 -3951 0zm-7902 1129l-1694 0 0 -3387 1694 0 0 3387zm-3952 0l0 -3387 1694 0 0 3387 -1694 0zm0 -4516l3952 0 0 565 -3952 0 0 -565zm0 5080l3952 0 0 565 -3952 0 0 -565zm4516 -4233l0 -847 6773 0 0 5645 -6773 0 0 -4798zm7338 4798l0 -1693 1693 0 0 282 565 0 0 -282 1693 0 0 1693 -3951 0zm0 0z"/>
  <path class="fil0" d="M16651 0l-4515 0c-156,0 -283,126 -283,282l0 4149 -564 -847 0 -3302c0,-156 -126,-282 -282,-282l-5080 0c-156,0 -283,126 -283,282l0 3302 -564 847 0 -4149c0,-156 -126,-282 -282,-282l-4516 0c-156,0 -282,126 -282,282l0 5080c0,156 126,282 282,282l16369 0c156,0 282,-126 282,-282l0 -5080c0,-156 -126,-282 -282,-282l0 0zm-12135 5080l-3952 0 0 -4516 3952 0 0 4516zm809 0l836 -1254c31,-47 48,-101 48,-157l0 -3105 4515 0 0 3105c1,56 17,110 48,157l836 1254 -6283 0zm11044 0l-3951 0 0 -4516 3951 0 0 4516zm0 0z"/>
  <path class="fil0" d="M12982 3951l2822 0 0 565 -2822 0 0 -565zm0 0z"/>
  <path class="fil0" d="M1129 3951l2822 0 0 565 -2822 0 0 -565zm0 0z"/>
  <path class="fil0" d="M6773 1129l565 0 0 564 -565 0 0 -564zm0 0z"/>
  <path class="fil0" d="M6773 2258l565 0 0 1411 -565 0 0 -1411zm0 0z"/>
  <path class="fil0" d="M1129 12700l564 0 0 564 -564 0 0 -564zm0 0z"/>
  <path class="fil0" d="M3387 12700l564 0 0 564 -564 0 0 -564zm0 0z"/>
 </g>
</svg>
