<?xml version="1.0"?>
<svg fill="red" xmlns="http://www.w3.org/2000/svg" width="512" height="512" viewBox="0 0 512 512">
    <g>
        <path d="M496,208H480V152a8,8,0,0,0-8-8V104a8,8,0,0,0-8-8H440a8,8,0,0,0-8,8v40h-8V120a8,8,0,0,0-16,0v24a8,8,0,0,0-8,8v56H294.25l-4-16H340a28.031,28.031,0,0,0,28-28V76a28.031,28.031,0,0,0-28-28H172a28.031,28.031,0,0,0-28,28v88a28.031,28.031,0,0,0,28,28h49.75l-4,16H88V184h4a28.031,28.031,0,0,0,28-28V116A28.031,28.031,0,0,0,92,88H80a8,8,0,0,0-8,8V208H16a8,8,0,0,0-8,8V456a8,8,0,0,0,8,8H40a8,8,0,0,0,8-8V256H72v72a8,8,0,0,0,8,8h72v24H136a8,8,0,0,0,0,16h16v25.44L78.43,416.16A7.99,7.99,0,0,0,72,424v32a8,8,0,0,0,16,0V430.56l64-12.8V456a8,8,0,0,0,16,0V417.76l64,12.8V456a8,8,0,0,0,16,0V424a7.99,7.99,0,0,0-6.43-7.84L168,401.44V336h72a8,8,0,0,0,8-8V316a28.031,28.031,0,0,0-28-28H88v-8h88a8,8,0,0,0,0-16H88v-8H328V456a8,8,0,0,0,8,8h24a8,8,0,0,0,8-8v-8h96v8a8,8,0,0,0,8,8h24a8,8,0,0,0,8-8V216A8,8,0,0,0,496,208ZM88,104h4a12.01,12.01,0,0,1,12,12v40a12.01,12.01,0,0,1-12,12H88ZM32,448H24V256h8ZM72,240H24V224H72Zm148,64a12.01,12.01,0,0,1,12,12v4H88V304ZM448,112h8v32h-8Zm-32,48h48v48H416ZM160,76a12.01,12.01,0,0,1,12-12H340a12.01,12.01,0,0,1,12,12v68H160Zm12,100a12.01,12.01,0,0,1-12-12v-4H352v4a12.01,12.01,0,0,1-12,12Zm105.75,32h-43.5l4-16h35.5ZM352,448h-8V256h8Zm112-16H368V384h96Zm0-64H368V320h96Zm0-64H368V256h96Zm24,144h-8V256h8Zm0-208H88V224H488Z"/>
        <path d="M400,288h32a8,8,0,0,0,0-16H400a8,8,0,0,0,0,16Z"/>
        <path d="M432,336H400a8,8,0,0,0,0,16h32a8,8,0,0,0,0-16Z"/>
        <path d="M432,400H400a8,8,0,0,0,0,16h32a8,8,0,0,0,0-16Z"/>
    </g>
</svg>
