<?xml version="1.0" encoding="UTF-8"?>
<!DOCTYPE svg PUBLIC "-//W3C//DTD SVG 1.1//EN" "http://www.w3.org/Graphics/SVG/1.1/DTD/svg11.dtd">
<!-- Creator: CorelDRAW X8 -->
<svg xmlns="http://www.w3.org/2000/svg" xml:space="preserve" width="169.333mm" height="141.111mm" version="1.1" style="shape-rendering:geometricPrecision; text-rendering:geometricPrecision; image-rendering:optimizeQuality; fill-rule:evenodd; clip-rule:evenodd"
viewBox="0 0 16933 14111"
 xmlns:xlink="http://www.w3.org/1999/xlink">
 <defs>
  <style type="text/css">
   <![CDATA[
    .fil0 {fill:#ED3237}
   ]]>
  </style>
 </defs>
 <g id="Camada_x0020_1">
  <metadata id="CorelCorpID_0Corel-Layer"/>
  <path class="fil0" d="M14676 12982c155,0 282,-126 282,-282l0 -1976 564 0c156,0 282,-126 282,-282 0,-156 -126,-282 -282,-282l-1693 0 0 -4516c0,-155 -126,-282 -282,-282l-10160 0c-156,0 -283,127 -283,282 0,156 127,283 283,283l9877 0 0 2822c-243,-185 -541,-284 -846,-282l-282 0 0 -283c0,-467 -380,-846 -847,-846l-1693 0c-468,0 -847,379 -847,846l0 283 -565 0 0 -283c0,-467 -379,-846 -846,-846l-1694 0c-467,0 -846,379 -846,846l0 283 -282 0c-780,0 -1412,632 -1412,1411l0 282 -1693 0c-156,0 -282,126 -282,282 0,156 126,282 282,282l565 0 0 1976c0,156 126,282 282,282l846 0 0 847c0,156 127,282 283,282l1129 0c155,0 282,-126 282,-282l0 -847 4515 0c156,0 283,-126 283,-282 0,-156 -127,-282 -283,-282l-6773 0 0 -1694 11853 0 0 1694 -3951 0c-156,0 -282,126 -282,282 0,156 126,282 282,282l1694 0 0 847c0,156 126,282 282,282l1129 0c156,0 282,-126 282,-282l0 -847 847 0zm-10443 0l0 565 -564 0 0 -565 564 0zm5080 -4798c0,-155 127,-282 283,-282l1693 0c156,0 282,127 282,282l0 283 -2258 0 0 -283zm-3951 0c0,-155 127,-282 282,-282l1694 0c156,0 282,127 282,282l0 283 -2258 0 0 -283zm-1693 1694c0,-468 379,-847 847,-847l7902 0c467,0 846,379 846,847l0 282 -9595 0 0 -282zm9595 3669l-564 0 0 -565 564 0 0 565zm0 0z"/>
  <path class="fil0" d="M8467 3951c1091,0 1975,-884 1975,-1975 0,-1092 -884,-1976 -1975,-1976 -1091,0 -1976,884 -1976,1976 0,1091 885,1975 1976,1975zm0 -3387c779,0 1411,632 1411,1412 0,779 -632,1411 -1411,1411 -780,0 -1411,-632 -1411,-1411 0,-780 631,-1412 1411,-1412zm0 0z"/>
  <path class="fil0" d="M8467 2258l564 0c156,0 282,-127 282,-282 0,-156 -126,-283 -282,-283l-282 0 0 -282c0,-156 -126,-282 -282,-282 -156,0 -283,126 -283,282l0 565c0,155 127,282 283,282zm0 0z"/>
  <path class="fil0" d="M16651 9031l-231 0 231 -1366c13,-82 -10,-166 -65,-229 -54,-63 -134,-99 -217,-98l-1693 0c-84,-1 -163,35 -218,98 -54,63 -78,147 -65,229l235 1366c-137,24 -237,143 -235,282 0,156 127,283 283,283l1693 0 0 1693 -565 0c-155,0 -282,126 -282,282 0,156 127,282 282,282l565 0 0 1694 -1693 0c-156,0 -283,126 -283,282 0,156 127,282 283,282l1975 0c156,0 282,-126 282,-282l0 -4516c0,-156 -126,-282 -282,-282zm-1453 0l-189 -1129 1027 0 -189 1129 -649 0zm0 0z"/>
  <path class="fil0" d="M2258 13547l-1694 0 0 -1694 565 0c156,0 282,-126 282,-282 0,-156 -126,-282 -282,-282l-565 0 0 -1693 1694 0c156,0 282,-127 282,-283 0,-156 -126,-282 -282,-282l-282 0 0 -1129 1128 0c95,0 183,-47 236,-126 52,-79 61,-179 24,-266l-847 -1976c-44,-104 -146,-172 -259,-172l-1129 0c-113,0 -216,68 -260,172l-846 1976c-37,87 -28,187 24,266 52,79 141,126 235,126l1129 0 0 1129 -1129 0c-156,0 -282,126 -282,282l0 4516c0,156 126,282 282,282l1976 0c156,0 282,-126 282,-282 0,-156 -126,-282 -282,-282zm-943 -7620l756 0 604 1411 -1975 0 615 -1411zm0 0z"/>
 </g>
</svg>
