<?xml version="1.0" encoding="UTF-8"?>
<!DOCTYPE svg PUBLIC "-//W3C//DTD SVG 1.1//EN" "http://www.w3.org/Graphics/SVG/1.1/DTD/svg11.dtd">
<!-- Creator: CorelDRAW X8 -->
<svg xmlns="http://www.w3.org/2000/svg" xml:space="preserve" width="210mm" height="210mm" version="1.1" style="shape-rendering:geometricPrecision; text-rendering:geometricPrecision; image-rendering:optimizeQuality; fill-rule:evenodd; clip-rule:evenodd"
viewBox="0 0 21000 21000"
 xmlns:xlink="http://www.w3.org/1999/xlink">
 <defs>
  <style type="text/css">
   <![CDATA[
    .fil0 {fill:#ED3237}
   ]]>
  </style>
 </defs>
 <g id="Camada_x0020_1">
  <metadata id="CorelCorpID_0Corel-Layer"/>
  <g id="_2775966734192">
   <g>
    <g>
     <path class="fil0" d="M20650 4550l-7700 0c-193,0 -350,157 -350,350l0 8400 -1750 0 0 -350 350 0c193,0 350,-157 350,-350 0,-193 -157,-350 -350,-350l-3500 0c-193,0 -350,157 -350,350 0,193 157,350 350,350l350 0 0 350 -3500 0 0 -350 350 0c193,0 350,-157 350,-350 0,-193 -157,-350 -350,-350l-3500 0c-193,0 -350,157 -350,350 0,193 157,350 350,350l350 0 0 350 -1400 0c-193,0 -350,157 -350,350l0 7000c0,193 157,350 350,350l20300 0c193,0 350,-157 350,-350l0 -15750c0,-193 -157,-350 -350,-350zm-11900 8400l1400 0 0 350 -1400 0 0 -350zm-6300 0l1400 0 0 350 -1400 0 0 -350zm3150 7350l-4900 0 0 -4200 4900 0 0 4200zm0 -4900l-4900 0 0 -1400 4900 0 0 1400zm7000 4900l-6300 0 0 -6300 6300 0 0 6300zm7700 0l-7000 0 0 -9450 7000 0 0 9450zm0 -10150l-7000 0 0 -4900 7000 0 0 4900z"/>
     <path class="fil0" d="M7350 19600l4200 0c193,0 350,-157 350,-350l0 -4200c0,-193 -157,-350 -350,-350l-4200 0c-193,0 -350,157 -350,350l0 4200c0,193 157,350 350,350zm350 -4200l3500 0 0 3500 -3500 0 0 -3500z"/>
     <path class="fil0" d="M14000 9800c193,0 350,-157 350,-350l0 -1400c0,-193 -157,-350 -350,-350 -193,0 -350,157 -350,350l0 1400c0,193 157,350 350,350z"/>
     <path class="fil0" d="M14000 13300c193,0 350,-157 350,-350l0 -1400c0,-193 -157,-350 -350,-350 -193,0 -350,157 -350,350l0 1400c0,193 157,350 350,350z"/>
     <path class="fil0" d="M825 6219c63,52 143,81 225,81l10500 0c193,0 350,-156 351,-349 0,-83 -29,-162 -82,-225l-3500 -4200c-66,-80 -165,-126 -269,-126l-350 0 0 -1050c0,-193 -157,-350 -350,-350l-2100 0c-193,0 -350,157 -350,350l0 1050 -350 0c-104,0 -203,46 -269,126l-3500 4200c-124,148 -104,369 44,493zm4775 -5519l1400 0 0 700 -1400 0 0 -700zm-886 1400l3172 0 2917 3500 -9006 0 2917 -3500z"/>
    </g>
   </g>
  </g>
 </g>
</svg>
