<?xml version="1.0" encoding="UTF-8"?>
<!DOCTYPE svg PUBLIC "-//W3C//DTD SVG 1.1//EN" "http://www.w3.org/Graphics/SVG/1.1/DTD/svg11.dtd">
<!-- Creator: CorelDRAW X8 -->
<svg xmlns="http://www.w3.org/2000/svg" xml:space="preserve" width="169.333mm" height="169.333mm" version="1.1" style="shape-rendering:geometricPrecision; text-rendering:geometricPrecision; image-rendering:optimizeQuality; fill-rule:evenodd; clip-rule:evenodd"
viewBox="0 0 16933 16933"
 xmlns:xlink="http://www.w3.org/1999/xlink">
 <defs>
  <style type="text/css">
   <![CDATA[
    .fil0 {fill:#ED3237}
   ]]>
  </style>
 </defs>
 <g id="Camada_x0020_1">
  <metadata id="CorelCorpID_0Corel-Layer"/>
  <path class="fil0" d="M16651 9596l-16087 0 0 -565 16087 0c156,0 282,-126 282,-282 0,-156 -126,-282 -282,-282l-282 0 0 -1411c0,-156 -126,-283 -282,-283l-847 0 0 -282c0,-156 -126,-282 -282,-282l0 -1411c0,-156 -127,-282 -282,-282l-1129 0c-156,0 -283,126 -283,282l0 1411c-155,0 -282,126 -282,282l0 565 -1129 0c-156,0 -282,126 -282,282l0 1129 -564 0 0 -1411c0,-156 -127,-283 -283,-283l-1693 0c-156,0 -282,127 -282,283l0 1411 -5362 0 0 -201c184,-274 282,-597 282,-928 -1,-605 -323,-1163 -847,-1465l0 -793c0,-312 -253,-564 -564,-564l-565 0c-311,0 -564,252 -564,564l0 793c-523,302 -846,860 -847,1465 0,331 98,654 282,928l0 201 -282 0c-156,0 -282,126 -282,282l0 1129c0,156 126,282 282,282l305 0 542 6514c12,147 135,260 282,259l565 0c147,1 270,-112 282,-259l542 -6514 12722 0 0 2258 -6209 0 0 -1411c0,-156 -126,-283 -282,-283 -156,0 -282,127 -282,283l0 5644c0,156 126,282 282,282l1129 0c156,0 282,-126 282,-282l0 -847 3951 0 0 847c0,156 127,282 283,282l1128 0c156,0 283,-126 283,-282l0 -6491 564 0c156,0 282,-126 282,-282 0,-156 -126,-282 -282,-282zm-3104 -2823l1129 0 0 1694 -1129 0 0 -1694zm2257 565l0 1129 -564 0 0 -1129 564 0zm-1975 -2258l564 0 0 1129 -564 0 0 -1129zm-1693 2540l846 0 0 847 -846 0 0 -847zm-2823 -282l1129 0 0 1129 -1129 0 0 -1129zm-7337 -1129c449,1 854,268 1033,680 -330,8 -657,71 -966,186 -376,143 -783,190 -1182,136 64,-568 543,-999 1115,-1002zm-283 -1129l565 0 0 590c-94,-16 -188,-24 -282,-26 -95,2 -189,10 -283,26l0 -590zm-615 2935c-51,-70 -95,-146 -130,-226l229 0c366,1 728,-66 1069,-197 271,-102 558,-154 847,-153 -22,205 -99,400 -223,565 -45,62 -63,139 -51,214l0 249 -1690 0 0 -223c17,-80 -2,-164 -51,-229l0 0zm14444 4967l0 2258 -6209 0 0 -2258 6209 0zm-5644 3387l-565 0 0 -565 565 0 0 565zm5644 0l-564 0 0 -565 564 0 0 565zm-13806 0l-45 0 -517 -6209 1078 0 -516 6209zm0 0z"/>
  <path class="fil0" d="M13264 11289c156,0 283,-126 283,-282 0,-156 -127,-283 -283,-283l-1693 0c-156,0 -282,127 -282,283 0,156 126,282 282,282l1693 0zm0 0z"/>
  <path class="fil0" d="M11571 14111l1693 0c156,0 283,-126 283,-282 0,-156 -127,-282 -283,-282l-1693 0c-156,0 -282,126 -282,282 0,156 126,282 282,282zm0 0z"/>
  <path class="fil0" d="M4516 7338c-156,0 -283,126 -283,282 0,156 127,282 283,282l3386 0c156,0 282,-126 282,-282 0,-156 -126,-282 -282,-282l-3386 0zm0 0z"/>
  <path class="fil0" d="M9596 6209c155,0 282,-126 282,-282l0 -4516c0,-156 -127,-282 -282,-282l-6209 0c-156,0 -283,126 -283,282l0 2822c0,156 127,283 283,283 156,0 282,-127 282,-283l0 -2540 1860 0 3784 3785 0 449c0,156 127,282 283,282l0 0zm-283 -3220l-1295 -1296 1295 0 0 1296zm-2988 -1296l897 0 2091 2092 0 897 -2988 -2989zm0 0z"/>
  <path class="fil0" d="M2258 3951c156,0 282,-126 282,-282l0 -2258c0,-467 379,-847 847,-847l6209 0c467,0 846,380 846,847l0 4516c0,156 127,282 282,282 156,0 283,-126 283,-282l0 -4516c0,-779 -632,-1411 -1411,-1411l-6209 0c-780,0 -1411,632 -1411,1411l0 2258c0,156 126,282 282,282l0 0zm0 0z"/>
  <path class="fil0" d="M7620 12418l-3951 0c-156,0 -282,126 -282,282l0 3951c0,156 126,282 282,282 156,0 282,-126 282,-282l0 -2540 3387 0 0 2540c0,156 126,282 282,282 156,0 282,-126 282,-282l0 -3951c0,-156 -126,-282 -282,-282zm-3669 564l3387 0 0 565 -3387 0 0 -565zm0 0z"/>
 </g>
</svg>
