<?xml version="1.0" encoding="UTF-8"?>
<!DOCTYPE svg PUBLIC "-//W3C//DTD SVG 1.1//EN" "http://www.w3.org/Graphics/SVG/1.1/DTD/svg11.dtd">
<!-- Creator: CorelDRAW X8 -->
<svg xmlns="http://www.w3.org/2000/svg" xml:space="preserve" width="169.212mm" height="169.334mm" version="1.1" style="shape-rendering:geometricPrecision; text-rendering:geometricPrecision; image-rendering:optimizeQuality; fill-rule:evenodd; clip-rule:evenodd"
viewBox="0 0 16933 16945"
 xmlns:xlink="http://www.w3.org/1999/xlink">
 <defs>
  <style type="text/css">
   <![CDATA[
    .fil0 {fill:#ED3237}
   ]]>
  </style>
 </defs>
 <g id="Camada_x0020_1">
  <metadata id="CorelCorpID_0Corel-Layer"/>
  <path class="fil0" d="M16933 13265c0,-468 -379,-847 -846,-847l-283 0 0 -282c185,-243 284,-541 283,-847 0,-444 -209,-862 -565,-1129l0 -310c657,-134 1129,-712 1129,-1383 0,-156 -126,-282 -282,-282l-847 0c-70,0 -140,8 -209,23 0,-37 0,-71 0,-105 1,-299 -118,-587 -330,-799l-590 -598c-110,-109 -287,-109 -398,0 -392,385 -519,965 -324,1479l-689 0c-156,0 -282,126 -282,282 0,671 472,1249 1129,1383l0 311c-355,266 -565,684 -565,1128 -1,306 98,604 283,847l0 282 -1411 0 0 -1693c0,-156 -127,-282 -283,-282l-1975 0c-468,0 -847,379 -847,846 0,468 379,847 847,847l282 0 0 282 -282 0c-468,0 -847,379 -847,847 0,467 379,847 847,847l468 0 -750 2458c-46,149 39,307 189,352 149,46 307,-39 353,-189l795 -2621 4098 0 773 2621c46,156 209,246 364,201 156,-45 246,-208 201,-364l-751 -2458 469 0c467,0 846,-380 846,-847zm-894 -4516c-120,339 -440,565 -799,565l-282 0c0,-312 252,-565 564,-565l517 0zm-1812 -1411l367 364c105,107 164,251 163,401 0,145 -57,285 -158,390l-84 -68 -122 -124c-158,-159 -248,-374 -248,-599 0,-126 28,-250 82,-364l0 0zm-914 1411l516 0c108,1 214,32 305,91l169 169c59,91 90,197 90,305l-282 0c-359,0 -679,-226 -798,-565zm728 3105c-164,-190 -235,-443 -194,-690 41,-248 189,-464 405,-591 88,-51 142,-145 141,-246l0 -449 565 0 0 438c-1,101 53,195 141,245 220,127 371,346 412,596 41,251 -33,506 -200,697 -46,51 -71,117 -71,186l0 378 -1129 0 0 -389c-3,-65 -27,-127 -70,-175l0 0zm-4163 -282c-156,0 -282,-127 -282,-283 0,-155 126,-282 282,-282l282 0 0 565 -282 0zm846 -565l847 0 0 1411 -847 0 0 -1411zm-1128 2258c0,-156 126,-282 282,-282l6209 0c156,0 282,126 282,282 0,156 -126,282 -282,282l-6209 0c-156,0 -282,-126 -282,-282zm0 0z"/>
  <path class="fil0" d="M6161 11854l-517 0 0 -847c0,-779 -631,-1411 -1411,-1411l-1693 0c-156,0 -282,-126 -282,-282l0 -799c12,-614 -457,-1130 -1070,-1177 -313,-18 -620,94 -846,311 -221,215 -344,510 -342,818l0 2540c0,156 126,282 282,282 156,0 282,-126 282,-282l0 -2540c0,-155 64,-304 177,-410 112,-107 264,-163 419,-154 310,35 541,301 533,612l0 799c0,467 379,846 847,846l1693 0c468,0 847,380 847,847l0 1976c0,156 126,282 282,282 156,0 282,-126 282,-282l0 -565 517 0c312,-8 577,224 612,534 9,155 -47,306 -154,419 -106,113 -255,176 -410,176l-4798 0c-467,0 -847,-379 -847,-847l0 -564c0,-156 -126,-282 -282,-282 -156,0 -282,126 -282,282l0 564c2,649 446,1212 1075,1366l-511 2529c-16,83 6,169 60,234 54,67 136,106 223,105l564 0c116,0 220,-71 263,-178l1058 -2644 1874 0 1058 2644c43,107 147,178 263,178l564 0c85,-1 164,-39 217,-105 56,-64 80,-150 65,-234l-502 -2483c623,-34 1101,-566 1067,-1189 -47,-612 -563,-1081 -1177,-1069l0 0zm-4942 4515l-28 0 452 -2257 479 0 -903 2257zm4900 0l-903 -2257 479 0 452 2257 -28 0zm0 0z"/>
  <path class="fil0" d="M7620 3669c0,468 379,847 847,847 467,0 846,-379 846,-847 0,-467 -379,-846 -846,-846 -468,0 -847,379 -847,846zm1129 0c0,156 -126,283 -282,283 -156,0 -283,-127 -283,-283 0,-155 127,-282 283,-282 156,0 282,127 282,282zm0 0z"/>
  <path class="fil0" d="M5644 5645l0 1411c0,156 127,282 283,282l5080 0c156,0 282,-126 282,-282l0 -3104c0,-156 -126,-283 -282,-283 -156,0 -283,127 -283,283l0 1275 -434 -172c-464,-184 -993,-73 -1343,282 -128,128 -300,200 -480,200 -180,0 -353,-72 -480,-200 -350,-355 -880,-466 -1343,-282l-435 172 0 -2969 4515 0 0 565c0,156 127,282 283,282 156,0 282,-126 282,-282l0 -847c0,-156 -126,-282 -282,-282l-997 0 -1326 -1592c-54,-65 -133,-102 -217,-102 -84,0 -164,37 -218,102l-1326 1592 -996 0c-156,0 -283,126 -283,282l0 3669zm2823 -4922l810 971 -1620 0 810 -971zm-1612 4854c252,-100 540,-40 731,153 487,485 1275,485 1761,0 192,-193 481,-253 734,-153l643 260 0 937 -4515 0 0 -937 646 -260zm0 0z"/>
 </g>
</svg>
