<?xml version="1.0" encoding="UTF-8"?>
<!DOCTYPE svg PUBLIC "-//W3C//DTD SVG 1.1//EN" "http://www.w3.org/Graphics/SVG/1.1/DTD/svg11.dtd">
<!-- Creator: CorelDRAW X8 -->
<svg xmlns="http://www.w3.org/2000/svg" xml:space="preserve" width="192.62mm" height="169.333mm" version="1.1" style="shape-rendering:geometricPrecision; text-rendering:geometricPrecision; image-rendering:optimizeQuality; fill-rule:evenodd; clip-rule:evenodd"
viewBox="0 0 19262 16933"
 xmlns:xlink="http://www.w3.org/1999/xlink">
 <defs>
  <style type="text/css">
   <![CDATA[
    .fil0 {fill:#ED3237}
   ]]>
  </style>
 </defs>
 <g id="Camada_x0020_1">
  <metadata id="CorelCorpID_0Corel-Layer"/>
  <g id="_2449481944784">
   <path class="fil0" d="M18980 10380l-1064 0 0 -1861c0,-321 -261,-581 -581,-581l-1022 0c-321,0 -581,260 -581,581l0 1861 -782 0 0 -1923c0,-979 -797,-1775 -1775,-1775l-1369 0c-156,0 -283,126 -283,282 0,156 127,282 283,282l1369 0c667,0 1210,544 1210,1211l0 3351 -947 0 0 -752c0,-463 -377,-840 -840,-840l-1602 0c-463,0 -839,377 -839,840l0 752 -1052 0 0 -752c0,-463 -376,-840 -839,-840l-1602 0c-463,0 -840,377 -840,840l0 752 -947 0 0 -3351c0,-667 543,-1211 1210,-1211l4591 0c155,0 282,-126 282,-282 0,-156 -127,-282 -282,-282l-4591 0c-978,0 -1775,796 -1775,1775l0 1923 -782 0 0 -1861c0,-321 -260,-581 -580,-581l-1023 0c-320,0 -581,260 -581,581l0 1861 -1064 0c-156,0 -282,127 -282,283l0 3479c0,156 126,282 282,282l2715 0 0 431 -580 0c-156,0 -282,126 -282,282l0 1514c0,156 126,282 282,282l10461 0c156,0 282,-126 282,-282 0,-156 -126,-282 -282,-282l-10179 0 0 -950 13864 0 0 950 -2557 0c-156,0 -282,126 -282,282 0,156 126,282 282,282l2839 0c156,0 282,-126 282,-282l0 -1514c0,-156 -126,-282 -282,-282l-580 0 0 -431 2715 0c156,0 282,-126 282,-282l0 -3479c0,-156 -126,-283 -282,-283l0 0zm-2684 -1861c0,-10 7,-17 17,-17l1022 0c9,0 16,7 16,17l0 1861 -1055 0 0 -1861 0 0zm-5575 2537c0,-152 123,-276 275,-276l1602 0c152,0 276,124 276,276l0 752 -2153 0 0 -752 0 0zm-4333 0c0,-152 124,-276 276,-276l1602 0c152,0 275,124 275,276l0 752 -2153 0 0 -752 0 0zm-4477 -2537c0,-10 7,-17 16,-17l1023 0c9,0 16,7 16,17l0 1861 -1055 0 0 -1861zm-1347 5341l0 -2915 3748 0 0 863 -16 0c-716,0 -1299,582 -1299,1298l0 754 -2433 0 0 0zm2998 995l0 -1749c0,-405 329,-734 734,-734l10670 0c405,0 734,329 734,734l0 1749 -12138 0zm15136 -995l-2433 0 0 -754c0,-716 -583,-1298 -1299,-1298l-16 0 0 -863 3748 0 0 2915z"/>
   <path class="fil0" d="M12479 1996l0 2746c0,274 223,498 498,498l2633 0c275,0 498,-224 498,-498l0 -4244c0,-275 -223,-498 -498,-498l-2633 0c-275,0 -498,223 -498,498l0 1494 0 4zm564 2679l0 -2328c812,212 1451,568 1947,1084 174,181 360,355 554,518l0 726 -2501 0zm2501 -4111l0 2625c-50,-49 -99,-99 -147,-149 -600,-624 -1372,-1042 -2354,-1274l0 -1202 2501 0z"/>
   <path class="fil0" d="M7816 1996l0 2746c0,274 224,498 498,498l2634 0c274,0 498,-224 498,-498l0 -4244c0,-275 -224,-498 -498,-498l-2634 0c-274,0 -498,223 -498,498l0 1495c0,1 0,2 0,3zm565 2679l0 -2465c691,-189 1300,-256 1813,-198 211,24 443,40 687,54l0 2609 -2500 0 0 0zm2500 -4111l0 936c-224,-13 -436,-27 -623,-48 -555,-63 -1172,-6 -1877,174l0 -1062 2500 0z"/>
   <path class="fil0" d="M10677 8676l-2092 0c-156,0 -283,126 -283,282 0,156 127,282 283,282l2092 0c156,0 283,-126 283,-282 0,-156 -127,-282 -283,-282z"/>
   <path class="fil0" d="M3652 5240l2633 0c275,0 498,-224 498,-498l0 -4244c0,-275 -223,-498 -498,-498l-2633 0c-275,0 -498,223 -498,498l0 1098c0,156 126,283 282,283 156,0 282,-127 282,-283l0 -1032 2501 0 0 1954c-223,107 -455,222 -691,344 -707,366 -1341,486 -1810,511l0 -648c0,-156 -126,-283 -282,-283 -156,0 -282,127 -282,283l0 2017c0,274 223,498 498,498l0 0zm2135 -1876c146,-76 290,-149 432,-219l0 1530 -2501 0 0 -736c535,-26 1263,-158 2069,-575z"/>
   <path class="fil0" d="M2715 11808l-554 0c-155,0 -282,126 -282,282 0,156 127,282 282,282l554 0c156,0 282,-126 282,-282 0,-156 -126,-282 -282,-282l0 0z"/>
   <path class="fil0" d="M17101 11808l-554 0c-156,0 -282,126 -282,282 0,156 126,282 282,282l554 0c155,0 282,-126 282,-282 0,-156 -127,-282 -282,-282l0 0z"/>
  </g>
 </g>
</svg>
