<svg height="512" viewBox="0 0 64 64" width="512" xmlns="http://www.w3.org/2000/svg"><g id="bedroom-bed-hotel-2" data-name="bedroom-bed-hotel"><path d="m41 34v12h-36v-12a2.006 2.006 0 0 1 2-2h32a2.006 2.006 0 0 1 2 2z" fill="#cf9e76"/><path d="m3 6h40v22h-40z" fill="#27aae1"/><path d="m7 6h-4v-3h40v3h-32z" fill="#cf9e76"/><path d="m39 19-6-1-2 2-2.74-2.74 4.74-4.26z" fill="#fff"/><path d="m23.82 21.26 4.44-4 2.74 2.74 2-2 6 1 4 4v5h-36.4l14.4-9z" fill="#64c37d"/><path d="m3 57h4v4h-4z" fill="#57565c"/><path d="m39 57h4v4h-4z" fill="#57565c"/><path d="m3 52h40v5h-40z" fill="#ffeb99"/><path d="m33.5 38a2.5 2.5 0 1 1 0 5h-5a2.5 2.5 0 1 1 0-5z" fill="#fff"/><path d="m17.5 38a2.5 2.5 0 1 1 0 5h-5a2.5 2.5 0 1 1 0-5z" fill="#fff"/><path d="m43 46v3h-40v-3a2.979 2.979 0 0 1 2.06-2.84 2.653 2.653 0 0 1 .94-.16h34a2.653 2.653 0 0 1 .94.16 2.979 2.979 0 0 1 2.06 2.84z" fill="#ffeb99"/><path d="m3 49h40v3h-40z" fill="#fff"/><path d="m58 58h3v3h-3z" fill="#3e3d42"/><path d="m47 58h3v3h-3z" fill="#3e3d42"/><path d="m47 50h14v8h-3-8-3z" fill="#cf9e76"/><path d="m47 42h14v8h-14z" fill="#cf9e76"/><path d="m57 26 3 9h-6-6l3-9z" fill="#ffda44"/><circle cx="54" cy="10" fill="#2488ff" r="6"/><path d="m61 41h-4v-2h-2v-3h5a.983.983 0 0 0 .81-.42 1 1 0 0 0 .14-.9l-3-9a1.014 1.014 0 0 0 -.95-.68h-6a1.014 1.014 0 0 0 -.95.68l-3 9a1 1 0 0 0 .14.9.983.983 0 0 0 .81.42h5v3h-2v2h-4a1 1 0 0 0 -1 1v19a1 1 0 0 0 1 1h3a1 1 0 0 0 1-1v-2h6v2a1 1 0 0 0 1 1h3a1 1 0 0 0 1-1v-19a1 1 0 0 0 -1-1zm-11.61-7 2.33-7h4.56l2.33 7zm-.39 26h-1v-1h1zm11 0h-1v-1h1zm0-3h-12v-6h12zm0-8h-12v-6h12z"/><path d="m42 42.56v-8.56a3.009 3.009 0 0 0 -3-3h-32a3.009 3.009 0 0 0 -3 3v8.56a3.98 3.98 0 0 0 -2 3.44v15a1 1 0 0 0 1 1h4a1 1 0 0 0 1-1v-3h30v3a1 1 0 0 0 1 1h4a1 1 0 0 0 1-1v-15a3.98 3.98 0 0 0 -2-3.44zm-36-8.56a1 1 0 0 1 1-1h32a1 1 0 0 1 1 1v8h-3.35a3.446 3.446 0 0 0 .35-1.5 3.5 3.5 0 0 0 -3.5-3.5h-5a3.5 3.5 0 0 0 -3.5 3.5 3.446 3.446 0 0 0 .35 1.5h-4.7a3.446 3.446 0 0 0 .35-1.5 3.5 3.5 0 0 0 -3.5-3.5h-5a3.5 3.5 0 0 0 -3.5 3.5 3.446 3.446 0 0 0 .35 1.5h-3.35zm29 6.5a1.5 1.5 0 0 1 -1.5 1.5h-5a1.5 1.5 0 0 1 0-3h5a1.5 1.5 0 0 1 1.5 1.5zm-16 0a1.5 1.5 0 0 1 -1.5 1.5h-5a1.5 1.5 0 0 1 0-3h5a1.5 1.5 0 0 1 1.5 1.5zm-13 19.5h-2v-2h2zm36 0h-2v-2h2zm0-4h-38v-3h38zm0-5h-38v-1h38zm0-3h-38v-2a2.006 2.006 0 0 1 2-2h34a2.006 2.006 0 0 1 2 2z"/><path d="m52 44h4v2h-4z"/><path d="m52 52h4v2h-4z"/><path d="m54 17a7 7 0 1 0 -7-7 7.008 7.008 0 0 0 7 7zm0-12a5 5 0 1 1 -5 5 5.006 5.006 0 0 1 5-5z"/><path d="m55 10v-4h-2v3h-2v2h3a1 1 0 0 0 1-1z"/><path d="m43 2h-40a1 1 0 0 0 -1 1v25a1 1 0 0 0 1 1h40a1 1 0 0 0 1-1v-25a1 1 0 0 0 -1-1zm-1 25h-31.91l10.84-6.78 4.45 3.56 1.24-1.56-1.25-1.01 2.86-2.57 2.06 2.07a1.014 1.014 0 0 0 1.42 0l1.63-1.64 5.18.86 3.48 3.48zm-12.29-9.7 3.25-2.92 3.13 3.12-2.93-.49a1.011 1.011 0 0 0 -.87.28l-1.29 1.3zm12.29 3.29-8.29-8.3a1.007 1.007 0 0 0 -1.38-.03l-8.55 7.69-2.16-1.73a.993.993 0 0 0 -1.15-.07l-14.16 8.85h-2.31v-20h38zm0-15.59h-38v-1h38z"/></g></svg>