<?xml version="1.0" encoding="UTF-8"?>
<!DOCTYPE svg PUBLIC "-//W3C//DTD SVG 1.1//EN" "http://www.w3.org/Graphics/SVG/1.1/DTD/svg11.dtd">
<!-- Creator: CorelDRAW X8 -->
<svg xmlns="http://www.w3.org/2000/svg" xml:space="preserve" width="169.32mm" height="169.333mm" version="1.1" style="shape-rendering:geometricPrecision; text-rendering:geometricPrecision; image-rendering:optimizeQuality; fill-rule:evenodd; clip-rule:evenodd"
viewBox="0 0 16932 16933"
 xmlns:xlink="http://www.w3.org/1999/xlink">
 <defs>
  <style type="text/css">
   <![CDATA[
    .fil0 {fill:#ED3237}
   ]]>
  </style>
 </defs>
 <g id="Camada_x0020_1">
  <metadata id="CorelCorpID_0Corel-Layer"/>
  <g id="_2449399935104">
   <polygon class="fil0" points="3439,9525 5026,9525 5026,10053 3439,10053 "/>
   <polygon class="fil0" points="3439,11906 5026,11906 5026,12435 3439,12435 "/>
   <path class="fil0" d="M12963 6879l1324 0 0 -6879 -11642 0 0 6879 1324 0 0 1323 -3969 0 0 5291 1587 0 0 3440 529 0 0 -3440 12700 0 0 3440 529 0 0 -3440 1587 0 0 -5291 -3969 0 0 -1323zm-9788 -6350l10582 0 0 265 -10582 0 0 -265zm0 793l10582 0 0 4234 -10582 0 0 -4234zm0 5028l0 -265 10582 0 0 265 -10582 0zm9260 529l0 1323 -7938 0 0 -1323 7938 0zm-4763 6086l-7143 0 0 -1853 7143 8 0 1845zm0 -2374l-7143 -8 0 -1852 7143 0 0 1860zm2116 2374l-528 0 0 -2647 528 0 0 2647zm1853 0l-529 0 0 -2647 529 0 0 2647zm1852 0l-530 0 0 -2647 530 0 0 2647zm1852 0l-529 0 0 -2647 529 0 0 2647zm1058 -4234l0 4234 -528 0 0 -3175 -1588 0 0 3175 -265 0 0 -3175 -1587 0 0 3175 -265 0 0 -3175 -1588 0 0 3175 -264 0 0 -3175 -1587 0 0 3175 -530 0 0 -4234 8202 0 0 0z"/>
  </g>
 </g>
</svg>
